<svg xmlns="http://www.w3.org/2000/svg" viewBox="0 0 128 128" role="img" aria-label="Mastodon">
  <rect width="128" height="128" rx="22" fill="#f4f7fb"/>
  <path fill="#365dff" d="M100 47c0-20-13-26-13-26-7-3-18-5-23-5h-1c-5 0-16 2-23 5 0 0-13 6-13 26 0 5-.1 12 .1 19 .8 20 15 25 28 27 7 1 14 1 19 0 9-1 15-4 15-4l-.3-8s-7 2-14 2c-7 .2-14-.7-15-9a18 18 0 0 1-.1-2c14 3 26 1 29 0 8-1 15-8 16-15 .7-11 .6-26 .6-30Z"/>
  <path fill="#fff" d="M86 50v25H75V51c0-5-2-8-7-8-5 0-8 3-8 9v13H49V52c0-6-3-9-8-9s-7 3-7 8v24H23V50c0-6 2-11 5-15 4-4 9-6 15-6 7 0 13 3 17 8l4 6 4-6c4-5 10-8 17-8 6 0 11 2 15 6 4 4 6 9 6 15Z"/>
  <path fill="#1d2b53" d="M88 88c-8 5-17 7-28 6-16-2-25-8-28-20 6 8 16 12 31 12 9 0 18-1 25-4v6Z" opacity=".28"/>
</svg>
