<svg xmlns="http://www.w3.org/2000/svg" viewBox="0 0 1024 1024">
  <rect width="1024" height="1024" rx="216" fill="#f7f7f2"/>
  <path d="M182 676c112-68 218-86 319-54 91 29 180 19 267-31 30-17 56-11 74 16 17 27 10 55-20 72-117 68-236 82-357 43-72-23-150-8-234 43-27 17-55 9-72-18-16-27-8-55 23-71Z" fill="#111"/>
  <path d="M286 246c75 0 136 61 136 136 0 103-136 248-136 248S150 485 150 382c0-75 61-136 136-136Zm0 82a54 54 0 1 0 0 108 54 54 0 0 0 0-108Z" fill="#e83d35"/>
  <path d="M678 146c106 0 192 86 192 192s-86 192-192 192-192-86-192-192 86-192 192-192Zm-7 78c-38 6-71 31-89 66h82c1-24 3-47 7-66Zm77 66h57c-14-27-36-48-64-59 3 18 6 38 7 59Zm-184 64c3 39 23 73 53 96 21-13 37-37 44-96h-97Zm162 0c-7 57-22 90-39 111 58-4 106-50 116-111h-77Z" fill="#2c9b4b"/>
  <path d="M528 694c63 0 114 51 114 114s-51 114-114 114-114-51-114-114 51-114 114-114Z" fill="#f7cf28" stroke="#111" stroke-width="42"/>
</svg>
